Coordinates
version=1
nRows=5
nColumns=42
inDegrees=yes

Units are S.I. units (second, meters, Newtons, ...)
If the header above contains a line with 'inDegrees', this indicates whether rotational values are in degrees (yes) or radians (no).

endheader
time	pelvis_tilt	pelvis_list	pelvis_rotation	pelvis_tx	pelvis_ty	pelvis_tz	hip_flexion_r	hip_adduction_r	hip_rotation_r	knee_angle_r	knee_adduction_r	knee_angle_r_beta	ankle_angle_r	subtalar_angle_r	mtp_angle_r	hip_flexion_l	hip_adduction_l	hip_rotation_l	knee_angle_l	knee_adduction_l	knee_angle_l_beta	ankle_angle_l	subtalar_angle_l	mtp_angle_l	lumbar_extension	lumbar_bending	lumbar_rotation	arm_flex_r	arm_add_r	arm_rot_r	elbow_flex_r	pro_sup_r	wrist_flex_r	wrist_dev_r	arm_flex_l	arm_add_l	arm_rot_l	elbow_flex_l	pro_sup_l	wrist_flex_l	wrist_dev_l
      2.03000000	      8.00853744	     -2.09402473	     -9.24029167	      1.53251516	      0.82838365	      0.01778513	     18.36269202	     -2.50393065	    -12.02166472	     64.18006589	    -12.62165621	      1.12015346	      9.54662905	     -8.05365613	     -7.50001300	      1.41120368	     -1.37844441	    -34.19761083	     27.17229752	     -5.78249957	      0.47424606	     25.47266778	     21.47654959	     -7.50001300	    -20.26836800	      1.42619913	      4.44847545	      2.37618333	    -19.92931351	     -3.12581960	     38.34098675	     90.00000001	      0.00000000	      0.00000000	     -2.48928331	     -7.05071962	    -27.82179546	     38.10080539	     90.00000001	      0.00000000	      0.00000000
      2.04000000	      7.91270391	     -2.26793687	     -8.63466924	      1.54674158	      0.82900973	      0.01690107	     19.61955673	     -1.80851803	    -13.13797353	     61.45748842	    -12.51953628	      1.07263552	     10.19029849	     -7.85959825	     -7.50001194	     -0.19260440	     -1.47409232	    -34.67455570	     26.08814984	     -5.40469763	      0.45532411	     25.82458851	     22.99537530	     -7.50001194	    -20.15506790	      1.88174916	      3.45937155	      2.25296975	    -19.73953375	     -3.34945007	     38.14765171	     90.00000001	      0.00000000	      0.00000000	     -2.15622808	     -7.33040536	    -26.20513272	     39.98641869	     90.00000001	      0.00000000	      0.00000000
      2.05000000	      7.85147083	     -2.38361280	     -7.99915991	      1.56111689	      0.82921136	      0.01595759	     20.66584056	     -1.37455344	    -14.20525408	     58.43536018	    -12.06805476	      1.01988943	     10.86868834	     -7.60676514	     -7.50001092	     -1.76122397	     -1.61374043	    -35.33234080	     25.22744667	     -4.97958162	      0.44030201	     26.13086764	     24.34112913	     -7.50001092	    -20.02389634	      2.27329813	      2.47896123	      2.09247209	    -19.49748679	     -3.59151099	     37.94422238	     90.00000001	      0.00000000	      0.00000000	     -1.72651893	     -7.60376354	    -24.46683211	     41.65038044	     90.00000001	      0.00000000	      0.00000000
      2.06000000	      7.79341770	     -2.40584558	     -7.33324315	      1.57547671	      0.82898667	      0.01504932	     21.59282685	     -1.06268951	    -15.20988925	     55.20061105	    -11.52180705	      0.96343241	     11.35653894	     -7.68232898	     -7.50001052	     -3.33012813	     -1.58834980	    -35.56389941	     24.32199663	     -4.46981988	      0.42449892	     26.29992403	     24.99261073	     -7.50001052	    -19.88816585	      2.55448333	      1.46711667	      1.85065478	    -19.31962310	     -3.68465116	     37.82612313	     90.00000001	      0.00000000	      0.00000000	     -0.99450178	     -7.79934272	    -23.72940242	     42.91003808	     90.00000001	      0.00000000	      0.00000000
      2.07000000	      7.67814328	     -2.36779556	     -6.61128678	      1.58992019	      0.82811793	      0.01410178	     22.51946531	     -0.96647142	    -16.90346035	     51.76331963	    -11.30730542	      0.90344036	     11.92897926	     -6.80381836	     -7.50000976	     -4.67062604	     -1.63578238	    -36.40189213	     23.70342721	     -4.20254704	      0.41370285	     26.73472114	     26.65958847	     -7.50000976	    -19.66745140	      2.77613530	      0.36452201	      1.75529711	    -19.08008615	     -3.99957511	     37.44750423	     90.00000001	      0.00000000	      0.00000000	     -0.81972288	     -8.26072147	    -21.90938680	     45.20132694	     90.00000001	      0.00000000	      0.00000000
